<svg width="19" height="19" viewBox="0 0 19 19" fill="none" xmlns="http://www.w3.org/2000/svg">
<path d="M5.21191 1.15317H8.54199C8.57786 1.1532 8.61237 1.16723 8.6377 1.19223C8.66286 1.21716 8.67667 1.25084 8.67676 1.28598V6.28793C8.67679 6.74506 8.86114 7.18339 9.18848 7.50668C9.51605 7.83001 9.96063 8.0125 10.4238 8.01254H15.4912C15.5271 8.01254 15.5616 8.02658 15.5869 8.05161C15.6121 8.07657 15.6269 8.11016 15.627 8.14536V14.8622C15.6269 15.4657 15.3835 16.0446 14.9512 16.4715C14.5185 16.8985 13.9312 17.1385 13.3193 17.1385H5.21191C4.60009 17.1385 4.01366 16.8985 3.58105 16.4715C3.14852 16.0446 2.90536 15.4659 2.90527 14.8622V3.42953C2.90535 2.82581 3.1485 2.2471 3.58105 1.82016C4.01366 1.39319 4.60008 1.15318 5.21191 1.15317ZM6.37012 12.5663C6.21407 12.5663 6.06448 12.6272 5.9541 12.7362C5.8437 12.8451 5.78125 12.9931 5.78125 13.1473C5.78133 13.3014 5.84377 13.4495 5.9541 13.5584C6.06446 13.6672 6.2142 13.7283 6.37012 13.7284H12.1611C12.317 13.7284 12.4668 13.6672 12.5771 13.5584C12.6875 13.4495 12.7499 13.3014 12.75 13.1473C12.75 12.9931 12.6876 12.8451 12.5771 12.7362C12.4668 12.6273 12.3172 12.5663 12.1611 12.5663H6.37012ZM6.37012 9.70786C6.21415 9.70787 6.06447 9.76894 5.9541 9.87778C5.84372 9.98673 5.78128 10.1348 5.78125 10.2889C5.78125 10.4431 5.8437 10.5911 5.9541 10.7C6.06448 10.8089 6.21411 10.8699 6.37012 10.87H12.1611C12.3171 10.87 12.4668 10.8089 12.5771 10.7C12.6876 10.5911 12.75 10.4431 12.75 10.2889C12.75 10.1348 12.6875 9.98673 12.5771 9.87778C12.4668 9.76901 12.3171 9.70786 12.1611 9.70786H6.37012Z" fill="white" stroke="#4FD1C5" stroke-width="0.0190534"/>
<path d="M9.92969 1.59082C9.94173 1.59324 9.95322 1.59889 9.96191 1.60742L15.167 6.74512C15.1756 6.75376 15.1812 6.76546 15.1836 6.77734C15.1859 6.78916 15.1843 6.80138 15.1797 6.8125C15.175 6.82359 15.1673 6.83307 15.1572 6.83984C15.1469 6.84667 15.1345 6.85053 15.1221 6.85059H10.4238C10.2729 6.85058 10.1282 6.79167 10.0215 6.68652C9.91477 6.58119 9.85459 6.43796 9.85449 6.28906V1.65137C9.85454 1.63919 9.85834 1.62732 9.86523 1.61719C9.87202 1.60725 9.88137 1.59942 9.89258 1.59473C9.90405 1.59005 9.9175 1.58844 9.92969 1.59082Z" fill="white" stroke="#4FD1C5" stroke-width="0.0190534"/>
</svg>
