<svg width="19" height="19" viewBox="0 0 19 19" fill="none" xmlns="http://www.w3.org/2000/svg">
<path d="M3.45645 3.71366H15.0387C15.174 3.7136 15.3092 3.72207 15.4434 3.73903C15.3979 3.42385 15.2882 3.12103 15.1209 2.84883C14.9537 2.57662 14.7323 2.34067 14.4702 2.15519C14.208 1.96972 13.9105 1.83857 13.5956 1.76964C13.2807 1.70071 12.955 1.69544 12.6379 1.75414L3.11261 3.35927H3.10175C2.50384 3.47212 1.97214 3.80602 1.61523 4.29277C2.15294 3.91527 2.7966 3.71282 3.45645 3.71366Z" fill="white"/>
<path d="M15.0389 4.57266H3.45659C2.84244 4.57332 2.25363 4.81442 1.81935 5.24306C1.38508 5.67171 1.14081 6.25288 1.14014 6.85906V13.7183C1.14081 14.3245 1.38508 14.9056 1.81935 15.3343C2.25363 15.7629 2.84244 16.004 3.45659 16.0047H15.0389C15.653 16.004 16.2418 15.7629 16.6761 15.3343C17.1104 14.9056 17.3547 14.3245 17.3553 13.7183V6.85906C17.3547 6.25288 17.1104 5.67171 16.6761 5.24306C16.2418 4.81442 15.653 4.57332 15.0389 4.57266ZM13.3196 11.4319C13.0905 11.4319 12.8666 11.3648 12.6761 11.2392C12.4857 11.1136 12.3372 10.935 12.2496 10.7262C12.1619 10.5173 12.139 10.2874 12.1837 10.0656C12.2283 9.84388 12.3387 9.64018 12.5006 9.4803C12.6626 9.32042 12.869 9.21154 13.0937 9.16743C13.3183 9.12332 13.5512 9.14596 13.7629 9.23249C13.9745 9.31901 14.1554 9.46554 14.2827 9.65354C14.4099 9.84154 14.4779 10.0626 14.4779 10.2887C14.4779 10.5919 14.3558 10.8826 14.1386 11.097C13.9214 11.3114 13.6268 11.4319 13.3196 11.4319Z" fill="white"/>
<path d="M1.1582 9.26867V5.71403C1.1582 4.93987 1.59254 3.64198 3.10004 3.36082C4.37952 3.12396 5.64634 3.12396 5.64634 3.12396C5.64634 3.12396 6.47881 3.69556 5.79111 3.69556C5.10342 3.69556 5.12151 4.57083 5.79111 4.57083C6.46071 4.57083 5.79111 5.41036 5.79111 5.41036L3.09461 8.42913L1.1582 9.26867Z" fill="white"/>
</svg>
