<svg width="37" height="17" viewBox="0 0 37 17" fill="none" xmlns="http://www.w3.org/2000/svg">
<path d="M33.0973 16.2068C33.9194 16.2058 34.7074 15.8783 35.2881 15.2963C35.8688 14.7143 36.1945 13.9255 36.1936 13.1034C36.1941 12.6963 36.1144 12.2931 35.959 11.9168C35.8037 11.5406 35.5758 11.1985 35.2882 10.9104C35.0007 10.6222 34.6592 10.3935 34.2833 10.2373C33.9074 10.0811 33.5044 10.0004 33.0973 10C32.6901 10.0004 32.287 10.0809 31.911 10.2371C31.535 10.3933 31.1934 10.622 30.9058 10.9102C30.6182 11.1983 30.3902 11.5404 30.2348 11.9167C30.0793 12.293 29.9996 12.6963 30 13.1034C29.9993 13.9256 30.3251 14.7145 30.906 15.2965C31.4868 15.8785 32.275 16.2059 33.0973 16.2068Z" fill="#E5004E"/>
<path d="M15 0.000950684V16.2288H18.3597V11.6504L20.125 9.66373L25.1051 16.2278H29.5041L22.4217 7.09605L28.7796 0H24.5245L18.3602 7.26597V0.000950684H15Z" fill="#373332"/>
<path d="M5.27155 0.616296C4.25733 1.01674 3.32977 1.60888 2.53962 2.36033C1.74506 3.11773 1.1117 4.02786 0.677577 5.0361C0.215826 6.12306 -0.0146719 7.29422 0.00073379 8.47509C-0.0147756 9.65628 0.215724 10.8278 0.677577 11.915C1.11169 12.9233 1.74505 13.8334 2.53962 14.5908C3.32976 15.3423 4.25732 15.9344 5.27155 16.3348C6.31739 16.7493 7.43313 16.9589 8.55808 16.9522C9.49576 16.9652 10.4284 16.8134 11.3136 16.5038C12.0709 16.2436 12.7693 15.8364 13.3687 15.3054V12.0354C12.7598 12.5273 12.0898 12.9384 11.3755 13.2583C10.5138 13.614 9.5866 13.7832 8.65485 13.7549C7.73038 13.7661 6.82 13.5277 6.01967 13.0648C5.23567 12.6119 4.58456 11.9608 4.13167 11.1768C3.65892 10.3564 3.41689 9.42331 3.43122 8.4765C3.41377 7.5256 3.65594 6.58793 4.13167 5.76439C4.58919 4.98395 5.23923 4.33391 6.01967 3.87639C6.81743 3.40601 7.7288 3.1631 8.65485 3.17405C9.28165 3.16176 9.90626 3.25168 10.5041 3.44026C11.0026 3.60611 11.4783 3.83382 11.9201 4.11805C12.3383 4.39339 12.7411 4.67659 13.1285 4.96766V1.5768C12.5584 1.07938 11.9027 0.689642 11.1933 0.426549C10.3479 0.126166 9.45498 -0.0177788 8.55808 0.00175146C7.43313 -0.00492604 6.31739 0.20466 5.27155 0.61912" fill="#373332"/>
</svg>
