<svg width="118" height="46" viewBox="0 0 118 46" fill="none" xmlns="http://www.w3.org/2000/svg">
<path d="M51.5377 40.0862C52.3598 40.0852 53.1479 39.7577 53.7285 39.1757C54.3092 38.5937 54.6349 37.8049 54.634 36.9828C54.6345 36.5757 54.5548 36.1725 54.3995 35.7962C54.2441 35.4199 54.0162 35.0779 53.7287 34.7898C53.4411 34.5016 53.0997 34.2728 52.7237 34.1166C52.3478 33.9604 51.9448 33.8798 51.5377 33.8794C51.1306 33.8798 50.7275 33.9603 50.3514 34.1165C49.9754 34.2727 49.6339 34.5014 49.3463 34.7896C49.0586 35.0777 48.8306 35.4198 48.6752 35.7961C48.5198 36.1724 48.44 36.5757 48.4404 36.9828C48.4397 37.805 48.7656 38.5939 49.3464 39.1759C49.9272 39.7579 50.7155 40.0853 51.5377 40.0862Z" fill="#E5004E"/>
<path d="M42.2027 30.6511C42.734 30.9352 43.2129 31.3079 43.6187 31.7532V33.4973C43.6383 34.1591 43.484 34.8144 43.1712 35.398C42.8981 35.8969 42.4978 36.3148 42.0111 36.6092C41.5478 36.8887 41.0167 37.0357 40.4756 37.0339C40.0588 37.05 39.6438 36.9724 39.261 36.8067C38.8782 36.6411 38.5374 36.3916 38.2638 36.0767C37.7046 35.4288 37.4075 34.5954 37.4308 33.7399C37.4257 33.1485 37.558 32.5641 37.8173 32.0326C38.0635 31.522 38.4331 31.0808 38.8926 30.7488C39.3773 30.4107 39.9576 30.2368 40.5483 30.2527C41.1247 30.2479 41.6933 30.385 42.2041 30.652M37.0555 28.0121C36.1767 28.5547 35.4655 29.3303 35.0009 30.2527C34.4673 31.3359 34.2059 32.5329 34.2396 33.7399C34.204 34.9381 34.4611 36.1269 34.9886 37.2034C35.4375 38.1016 36.1281 38.8566 36.9828 39.3836C37.8024 39.8808 38.7439 40.1406 39.7025 40.134C40.5476 40.1513 41.3765 39.9012 42.071 39.4194C42.7147 38.9808 43.2451 38.3957 43.6187 37.7122V39.84C43.6279 40.4385 43.4551 41.0256 43.1231 41.5236C42.7821 42.0251 42.3097 42.423 41.7576 42.6739C41.1437 42.9555 40.4746 43.0962 39.7993 43.0855C39.1806 43.0965 38.5642 43.0066 37.9745 42.8193C37.4832 42.6565 37.0126 42.437 36.5722 42.1651C36.1612 41.907 35.7704 41.6649 35.3998 41.4387V44.3452C36.0106 44.7733 36.6582 45.1462 37.335 45.4596C38.1759 45.8109 39.0829 45.9761 39.9937 45.9439C41.1503 45.9561 42.2934 45.6948 43.3298 45.1811C44.3308 44.6849 45.1756 43.9224 45.7715 42.9774C46.4108 41.9158 46.7296 40.692 46.6895 39.4534V27.5387H43.6215V28.9193C43.1535 28.3899 42.5759 27.9684 41.9289 27.6841C41.301 27.388 40.6166 27.2308 39.9225 27.2234C38.913 27.2131 37.9208 27.4859 37.0584 28.0107" fill="#373332"/>
<path d="M21.8009 27.5993V39.8298H24.8713V32.0782C25.2079 31.5955 25.62 31.1701 26.0919 30.8184C26.5307 30.4761 27.0707 30.2888 27.6273 30.286C27.9261 30.2696 28.2252 30.3149 28.5058 30.419C28.7864 30.5231 29.0426 30.6838 29.2585 30.8911C29.6906 31.4028 29.9033 32.0643 29.8504 32.7319L29.8749 39.8279H32.9429V32.3227C32.9429 30.6433 32.524 29.3837 31.686 28.5438C31.2798 28.1321 30.7935 27.8079 30.2571 27.5914C29.7208 27.3749 29.1457 27.2706 28.5675 27.285C27.7885 27.2719 27.0245 27.5001 26.3802 27.9382C25.8022 28.3194 25.2917 28.7943 24.8698 29.3434V27.5993H21.8009Z" fill="#373332"/>
<path d="M0.458008 23.603V39.8308H3.81771V35.2524L5.58298 33.2658L10.5631 39.8299H14.9621L7.87973 30.6981L14.2376 23.6021H9.9825L3.81818 30.868V23.603H0.458008Z" fill="#373332"/>
<path d="M63.4359 5.8833L61.1882 13.1247L58.5767 5.8833H56.3771L53.742 13.1247L51.4943 5.8833H48.1582L52.3642 18.1138H54.6128L57.4646 10.1946L60.3174 18.1138H62.5415L66.772 5.8833H63.4359Z" fill="#373332"/>
<path d="M5.27046 2.14218C4.25623 2.54262 3.32867 3.13476 2.53852 3.8862C1.74396 4.64361 1.1106 5.55374 0.676479 6.56198C0.214727 7.64894 -0.0157706 8.8201 -0.000364843 10.001C-0.0158742 11.1822 0.214625 12.3536 0.676479 13.4409C1.11059 14.4491 1.74395 15.3593 2.53852 16.1167C3.32866 16.8681 4.25622 17.4603 5.27046 17.8607C6.31629 18.2752 7.43203 18.4848 8.55698 18.4781C9.49466 18.491 10.4273 18.3393 11.3125 18.0297C12.0698 17.7695 12.7682 17.3622 13.3676 16.8313V13.5613C12.7587 14.0532 12.0887 14.4642 11.3744 14.7842C10.5127 15.1399 9.5855 15.3091 8.65375 15.2808C7.72928 15.292 6.8189 15.0536 6.01857 14.5907C5.23457 14.1378 4.58346 13.4867 4.13057 12.7027C3.65782 11.8822 3.41579 10.9492 3.43012 10.0024C3.41267 9.05148 3.65485 8.11381 4.13057 7.29027C4.58809 6.50983 5.23813 5.85979 6.01857 5.40227C6.81634 4.93188 7.7277 4.68898 8.65375 4.69993C9.28055 4.68764 9.90516 4.77755 10.503 4.96614C11.0015 5.13199 11.4772 5.3597 11.919 5.64393C12.3372 5.91926 12.74 6.20247 13.1274 6.49354V3.10268C12.5573 2.60526 11.9016 2.21552 11.1922 1.95243C10.3468 1.65204 9.45388 1.5081 8.55698 1.52763C7.43203 1.52095 6.31629 1.73054 5.27046 2.145" fill="#373332"/>
<path d="M22.8341 8.98258C23.364 9.2738 23.8424 9.65031 24.2501 10.097V11.841C24.2692 12.5028 24.115 13.158 23.8026 13.7418C23.5268 14.2424 23.127 14.6636 22.6415 14.9652C22.1806 15.2513 21.6485 15.4021 21.1061 15.4004C20.6884 15.4162 20.2726 15.3372 19.8898 15.1695C19.507 15.0018 19.1672 14.7496 18.8957 14.4318C18.3362 13.7791 18.0387 12.9421 18.0607 12.0827C18.057 11.4876 18.1892 10.8994 18.4473 10.3632C18.6911 9.84752 19.0613 9.40184 19.5234 9.06755C20.0078 8.72878 20.5883 8.5547 21.1792 8.571C21.7567 8.56617 22.3261 8.70777 22.8341 8.98258ZM17.6864 6.35496C16.8074 6.89729 16.0961 7.67294 15.6318 8.59555C15.0978 9.67861 14.8362 10.8756 14.8695 12.0827C14.8343 13.2809 15.0914 14.4696 15.6186 15.5462C16.0674 16.4444 16.7581 17.1994 17.6128 17.7264C18.4323 18.2236 19.3739 18.4834 20.3324 18.4769C21.1778 18.4941 22.007 18.244 22.7019 17.7623C23.3454 17.3236 23.8756 16.7385 24.2491 16.055V18.1134H27.3195V5.88248H24.2491V7.26309C23.781 6.73362 23.2035 6.31215 22.5565 6.02787C21.9289 5.73191 21.2448 5.57477 20.551 5.56719C19.5412 5.55666 18.5486 5.82941 17.6859 6.35448" fill="#373332"/>
<path d="M37.1269 5.85752C36.7501 5.70793 36.3476 5.63384 35.9422 5.63946C35.2265 5.63609 34.5344 5.89463 33.9962 6.36634C33.3992 6.88086 32.8962 7.49528 32.5098 8.18213V5.88207H29.4395V18.113H32.5098V11.2813C32.8288 10.6509 33.2449 10.0745 33.7427 9.57311C33.975 9.34498 34.2511 9.16624 34.5543 9.04764C34.8575 8.92905 35.1816 8.87305 35.507 8.88305C36.0758 8.88432 36.6344 9.0347 37.1269 9.31918V5.85752Z" fill="#373332"/>
<path d="M112.923 2.32323C112.613 3.42002 112.083 4.44212 111.365 5.32703C110.801 6.02259 110.063 6.55709 109.227 6.87661V8.45073H111.426V14.5306C111.396 15.0571 111.472 15.5842 111.648 16.0812C111.824 16.5782 112.098 17.035 112.453 17.4249C112.801 17.7762 113.218 18.0513 113.678 18.2327C114.138 18.4141 114.63 18.4977 115.124 18.4784C115.716 18.4974 116.305 18.3899 116.853 18.1631C117.278 17.975 117.667 17.7122 118 17.3871V14.9421C117.725 15.1189 117.428 15.2574 117.117 15.3537C116.751 15.4572 116.373 15.5061 115.993 15.4991C115.782 15.5144 115.57 15.4797 115.374 15.3977C115.179 15.3157 115.005 15.1887 114.868 15.0271C114.599 14.6506 114.466 14.1935 114.493 13.7315V8.45026H117.877V5.88352H114.493V2.32275L112.923 2.32323Z" fill="#373332"/>
<path d="M101.791 6.22274C101.212 6.60363 100.702 7.07856 100.28 7.62788V0.67627H97.21V18.1143H100.28V10.3641C100.617 9.88118 101.029 9.45577 101.501 9.1043C101.94 8.76214 102.48 8.57493 103.036 8.57188C103.335 8.55517 103.634 8.60029 103.915 8.7044C104.195 8.80852 104.451 8.9694 104.667 9.17699C105.1 9.68836 105.313 10.35 105.26 11.0178L105.284 18.1138H108.355V10.6067C108.355 8.9273 107.936 7.66769 107.098 6.82784C106.692 6.416 106.205 6.09175 105.669 5.87508C105.133 5.65842 104.558 5.55393 103.979 5.56807C103.2 5.55523 102.436 5.78375 101.792 6.22227" fill="#373332"/>
<path d="M90.9575 8.99484C91.4888 9.27895 91.9677 9.65169 92.3735 10.097V11.841C92.3931 12.5028 92.2388 13.1582 91.9261 13.7418C91.6523 14.2409 91.2514 14.6588 90.764 14.9529C90.3008 15.2325 89.7696 15.3794 89.2286 15.3777C88.8118 15.3938 88.3967 15.3161 88.0139 15.1504C87.6311 14.9848 87.2904 14.7353 87.0168 14.4205C86.4576 13.7726 86.1605 12.9392 86.1837 12.0836C86.1787 11.4923 86.311 10.9079 86.5703 10.3764C86.8164 9.86562 87.186 9.42423 87.6455 9.09209C88.1303 8.7542 88.7106 8.5805 89.3013 8.59648C89.8776 8.5915 90.4463 8.72865 90.957 8.99579M85.8085 6.35589C84.9296 6.89845 84.2184 7.67404 83.7538 8.59648C83.2202 9.67962 82.9589 10.8766 82.9925 12.0836C82.9569 13.2819 83.214 14.4707 83.7416 15.5472C84.1904 16.4453 84.8811 17.2004 85.7358 17.7273C86.5553 18.2245 87.4969 18.4843 88.4554 18.4778C89.3005 18.495 90.1294 18.2449 90.8239 17.7632C91.4674 17.3245 91.9977 16.7394 92.3711 16.056V18.187C92.3803 18.7855 92.2075 19.3726 91.8755 19.8707C91.5346 20.3721 91.0622 20.7701 90.5101 21.0209C89.8962 21.3026 89.227 21.4432 88.5517 21.4325C87.933 21.4436 87.3167 21.3537 86.727 21.1663C86.2356 21.0036 85.765 20.784 85.3247 20.5121C84.9137 20.2541 84.5229 20.012 84.1522 19.7857V22.6923C84.763 23.1203 85.4106 23.4932 86.0874 23.8067C86.9284 24.158 87.8354 24.3232 88.7462 24.291C89.9028 24.3032 91.0459 24.0418 92.0823 23.5282C93.0832 23.032 93.928 22.2694 94.5239 21.3244C95.1635 20.2629 95.4826 19.0392 95.4429 17.8005V5.88248H92.3726V7.26309C91.9045 6.73361 91.327 6.31215 90.68 6.02786C90.0524 5.73189 89.3683 5.57475 88.6744 5.56718C87.6646 5.55675 86.6721 5.8295 85.8094 6.35448" fill="#373332"/>
<path d="M75.5967 5.85751C75.2198 5.70801 74.8173 5.63392 74.4119 5.63945C73.6962 5.63595 73.004 5.89451 72.4659 6.36633C71.8685 6.88045 71.3655 7.49495 70.9795 8.18212V5.88206H67.9092V18.113H70.9795V11.2813C71.2986 10.6509 71.7146 10.0745 72.2124 9.5731C72.4445 9.345 72.7204 9.16626 73.0235 9.04766C73.3266 8.92907 73.6505 8.87306 73.9758 8.88304C74.5449 8.8843 75.1038 9.03467 75.5967 9.31917V5.85751Z" fill="#373332"/>
<path d="M42.1138 2.32323C41.8047 3.42017 41.2747 4.44234 40.5562 5.32703C39.9916 6.02241 39.2538 6.55687 38.4171 6.87661V8.45073H40.6166V14.5306C40.5867 15.0571 40.6622 15.5842 40.8385 16.0812C41.0149 16.5782 41.2886 17.035 41.6437 17.4249C41.9915 17.7761 42.4086 18.0511 42.8685 18.2325C43.3283 18.4138 43.8208 18.4976 44.3148 18.4784C44.9068 18.4975 45.4961 18.3901 46.0432 18.1631C46.4696 17.9759 46.8588 17.7133 47.1921 17.3881V14.9421C46.918 15.1192 46.6208 15.2577 46.309 15.3537C45.9437 15.4573 45.5652 15.5063 45.1856 15.4991C44.9743 15.5144 44.7623 15.4797 44.567 15.3976C44.3716 15.3156 44.1984 15.1887 44.0613 15.0271C43.792 14.6507 43.6595 14.1935 43.686 13.7315V8.45026H47.0703V5.88352H43.686V2.32275L42.1138 2.32323Z" fill="#373332"/>
<path d="M76.7576 5.8833V8.49865H78.7159V18.1138H81.7839V5.8833H76.7576Z" fill="#373332"/>
<path d="M79.7718 4.08598C80.0364 4.08579 80.2984 4.03348 80.5428 3.93201C80.7872 3.83054 81.0092 3.68191 81.1961 3.49461C81.3831 3.30732 81.5313 3.08503 81.6323 2.84044C81.7333 2.59585 81.7851 2.33376 81.7848 2.06913C81.785 1.80459 81.7331 1.5426 81.632 1.29811C81.531 1.05363 81.3827 0.83144 81.1958 0.644245C81.0089 0.457051 80.7869 0.308513 80.5426 0.207104C80.2982 0.105694 80.0363 0.0534085 79.7718 0.0532227C79.5072 0.0534085 79.2453 0.105694 79.001 0.207104C78.7566 0.308513 78.5346 0.457051 78.3477 0.644245C78.1608 0.83144 78.0125 1.05363 77.9115 1.29811C77.8104 1.5426 77.7585 1.80459 77.7587 2.06913C77.7584 2.33376 77.8102 2.59585 77.9112 2.84044C78.0122 3.08503 78.1604 3.30732 78.3474 3.49461C78.5343 3.68191 78.7563 3.83054 79.0007 3.93201C79.2451 4.03348 79.5071 4.08579 79.7718 4.08598Z" fill="#373332"/>
<path d="M14.9648 27.6001V30.2154H16.9232V39.8306H19.9912V27.6001H14.9648Z" fill="#373332"/>
<path d="M17.9794 25.8027C18.244 25.8025 18.506 25.7501 18.7503 25.6486C18.9947 25.5471 19.2167 25.3985 19.4036 25.2112C19.5906 25.0239 19.7388 24.8017 19.8398 24.5571C19.9408 24.3126 19.9927 24.0505 19.9925 23.7859C19.9928 23.5212 19.9409 23.2591 19.8399 23.0144C19.7389 22.7698 19.5908 22.5474 19.4038 22.36C19.2169 22.1727 18.9949 22.024 18.7505 21.9224C18.5061 21.8208 18.2441 21.7684 17.9794 21.7681C17.7147 21.7683 17.4526 21.8207 17.2081 21.9223C16.9637 22.0238 16.7416 22.1725 16.5546 22.3599C16.3676 22.5473 16.2194 22.7696 16.1184 23.0143C16.0173 23.259 15.9655 23.5212 15.9658 23.7859C15.9656 24.0505 16.0175 24.3126 16.1185 24.5572C16.2196 24.8018 16.3678 25.0241 16.5548 25.2114C16.7418 25.3987 16.9639 25.5473 17.2083 25.6488C17.4527 25.7502 17.7147 25.8025 17.9794 25.8027Z" fill="#373332"/>
</svg>
