<svg width="254" height="95" viewBox="0 0 254 95" fill="none" xmlns="http://www.w3.org/2000/svg">
<path d="M112.393 79.1438C114.003 79.142 115.545 78.5354 116.682 77.4575C117.819 76.3797 118.456 74.9188 118.455 73.3961C118.456 72.6422 118.3 71.8954 117.996 71.1985C117.691 70.5016 117.245 69.8682 116.682 69.3345C116.12 68.8008 115.451 68.3771 114.715 68.0878C113.979 67.7986 113.19 67.6492 112.393 67.6484C111.596 67.6491 110.807 67.7983 110.071 68.0876C109.335 68.3768 108.666 68.8004 108.103 69.3341C107.54 69.8679 107.094 70.5013 106.79 71.1983C106.485 71.8952 106.329 72.6421 106.33 73.3961C106.329 74.919 106.967 76.38 108.104 77.4579C109.241 78.5358 110.784 79.1422 112.393 79.1438Z" fill="#D64575"/>
<path d="M94.119 61.6694C95.1591 62.1955 96.0966 62.8858 96.891 63.7105V66.9406C96.9293 68.1663 96.6273 69.3801 96.015 70.4609C95.4803 71.385 94.6967 72.1589 93.7438 72.7041C92.837 73.2219 91.7973 73.494 90.7381 73.4908C89.9222 73.5206 89.1096 73.3768 88.3602 73.07C87.6108 72.7631 86.9438 72.3011 86.4083 71.718C85.3134 70.5181 84.7318 68.9745 84.7774 67.3899C84.7675 66.2948 85.0266 65.2124 85.5341 64.2281C86.0161 63.2824 86.7395 62.4652 87.639 61.8503C88.5879 61.2242 89.7239 60.9021 90.8804 60.9315C92.0086 60.9225 93.1219 61.1765 94.1218 61.6711M84.0428 56.7818C82.3225 57.7868 80.9302 59.2232 80.0207 60.9315C78.976 62.9376 78.4644 65.1545 78.5303 67.3899C78.4607 69.6091 78.964 71.811 79.9967 73.8046C80.8753 75.4681 82.2274 76.8665 83.9005 77.8424C85.5049 78.7633 87.3481 79.2445 89.2246 79.2324C90.8789 79.2643 92.5016 78.8011 93.8612 77.9089C95.1213 77.0965 96.1596 76.0129 96.891 74.747V78.6878C96.909 79.7962 96.5707 80.8836 95.9208 81.8059C95.2533 82.7347 94.3285 83.4717 93.2477 83.9363C92.046 84.458 90.736 84.7184 89.414 84.6986C88.2029 84.7191 86.9963 84.5526 85.8418 84.2056C84.88 83.9042 83.9587 83.4976 83.0967 82.994C82.2922 82.5161 81.5271 82.0676 80.8015 81.6486V87.0318C81.9972 87.8245 83.265 88.5152 84.5899 89.0957C86.2361 89.7463 88.0117 90.0523 89.7947 89.9926C92.0589 90.0152 94.2967 89.5312 96.3255 88.5799C98.285 87.6609 99.9388 86.2487 101.105 84.4984C102.357 82.5323 102.981 80.2658 102.903 77.9718V55.905H96.8965V58.462C95.9802 57.4814 94.8497 56.7008 93.5831 56.1743C92.3539 55.6258 91.0141 55.3348 89.6552 55.3211C87.679 55.302 85.7366 55.8071 84.0484 56.7792" fill="#D64575"/>
<path d="M54.1802 56.0172V78.6689H60.1907V64.3123C60.8497 63.4183 61.6566 62.6305 62.5802 61.9791C63.4394 61.3451 64.4964 60.9984 65.586 60.993C66.171 60.9628 66.7564 61.0466 67.3057 61.2394C67.8551 61.4322 68.3566 61.7298 68.7793 62.1137C69.6251 63.0614 70.0415 64.2866 69.938 65.523L69.986 78.6654H75.992V64.7651C75.992 61.6548 75.1718 59.3219 73.5314 57.7665C72.7362 57.0039 71.7842 56.4035 70.7342 56.0026C69.6842 55.6016 68.5585 55.4084 67.4266 55.435C65.9015 55.4107 64.4059 55.8333 63.1448 56.6449C62.0131 57.3508 61.0138 58.2303 60.188 59.2473V56.0172H54.1802Z" fill="#D64575"/>
<path d="M12.3984 48.616V78.671H18.9754V70.1915L22.4312 66.5121L32.1803 78.6693H40.7919L26.9273 61.7566L39.3735 48.6143H31.0437L18.9764 62.0713V48.616H12.3984Z" fill="#D64575"/>
<path d="M135.686 15.7979L131.286 29.2094L126.173 15.7979H121.867L116.709 29.2094L112.309 15.7979H105.778L114.012 38.4495H118.413L123.996 23.7826L129.581 38.4495H133.935L142.216 15.7979H135.686Z" fill="#D64575"/>
<path d="M21.8202 8.86896C19.8347 9.61062 18.0189 10.7073 16.4721 12.099C14.9166 13.5018 13.6768 15.1874 12.8269 17.0547C11.923 19.0678 11.4718 21.2369 11.5019 23.424C11.4716 25.6116 11.9228 27.7813 12.8269 29.7949C13.6768 31.6623 14.9166 33.3479 16.4721 34.7506C18.0189 36.1424 19.8347 37.2391 21.8202 37.9807C23.8675 38.7483 26.0517 39.1365 28.2539 39.1241C30.0895 39.1481 31.9153 38.867 33.6482 38.2937C35.1307 37.8118 36.4979 37.0575 37.6713 36.0741V30.0179C36.4793 30.9289 35.1677 31.6902 33.7693 32.2828C32.0825 32.9416 30.2674 33.255 28.4434 33.2025C26.6336 33.2232 24.8514 32.7817 23.2847 31.9244C21.7499 31.0856 20.4753 29.8798 19.5887 28.4277C18.6633 26.9082 18.1894 25.1801 18.2175 23.4266C18.1833 21.6654 18.6574 19.9288 19.5887 18.4036C20.4844 16.9581 21.7569 15.7542 23.2847 14.9069C24.8464 14.0357 26.6305 13.5858 28.4434 13.6061C29.6704 13.5833 30.8931 13.7499 32.0636 14.0991C33.0394 14.4063 33.9707 14.828 34.8356 15.3544C35.6542 15.8644 36.4427 16.3889 37.201 16.928V10.6479C36.0849 9.72662 34.8013 9.0048 33.4126 8.51753C31.7578 7.96121 30.0097 7.69461 28.2539 7.73078C26.0517 7.71842 23.8675 8.10658 21.8202 8.87419" fill="#D64575"/>
<path d="M56.2017 21.538C57.2392 22.0773 58.1757 22.7747 58.9737 23.6019V26.832C59.0113 28.0576 58.7093 29.2712 58.0978 30.3523C57.5579 31.2794 56.7752 32.0597 55.8247 32.6182C54.9224 33.148 53.8809 33.4273 52.819 33.4241C52.0014 33.4534 51.1874 33.3072 50.4381 32.9966C49.6887 32.6859 49.0234 32.2188 48.4919 31.6303C47.3967 30.4215 46.8143 28.8712 46.8574 27.2796C46.8501 26.1774 47.1089 25.0881 47.6141 24.095C48.0914 23.1399 48.8161 22.3145 49.7208 21.6954C50.6691 21.0679 51.8055 20.7455 52.9622 20.7757C54.0928 20.7668 55.2073 21.029 56.2017 21.538ZM46.1246 16.6715C44.4038 17.6759 43.0115 19.1124 42.1025 20.8212C41.0572 22.8271 40.5449 25.044 40.6102 27.2796C40.5414 29.4987 41.0447 31.7003 42.0766 33.6943C42.9553 35.3577 44.3073 36.7561 45.9805 37.7321C47.5849 38.6529 49.4281 39.1341 51.3045 39.122C52.9594 39.154 54.5828 38.6908 55.943 37.7985C57.2028 36.986 58.2408 35.9024 58.9719 34.6366V38.4489H64.9824V15.7964H58.9719V18.3534C58.0556 17.3728 56.925 16.5922 55.6584 16.0657C54.4298 15.5175 53.0907 15.2265 51.7324 15.2125C49.7555 15.193 47.8124 15.6981 46.1237 16.6706" fill="#D64575"/>
<path d="M84.1829 15.7501C83.4453 15.4731 82.6572 15.3358 81.8637 15.3463C80.4627 15.34 79.1077 15.8189 78.0541 16.6925C76.8854 17.6454 75.9009 18.7834 75.1444 20.0555V15.7956H69.1338V38.4481H75.1444V25.7953C75.7689 24.6277 76.5833 23.5602 77.5579 22.6316C78.0126 22.2091 78.5531 21.8781 79.1466 21.6584C79.7402 21.4388 80.3747 21.3351 81.0118 21.3536C82.1253 21.3559 83.2187 21.6345 84.1829 22.1613V15.7501Z" fill="#D64575"/>
<path d="M232.561 9.20425C231.956 11.2356 230.918 13.1286 229.512 14.7675C228.408 16.0557 226.964 17.0456 225.326 17.6374V20.5528H229.632V31.813C229.573 32.7881 229.721 33.7645 230.066 34.6849C230.411 35.6054 230.947 36.4514 231.642 37.1735C232.323 37.8242 233.139 38.3337 234.04 38.6696C234.94 39.0055 235.904 39.1605 236.871 39.1246C238.03 39.1598 239.183 38.9607 240.255 38.5407C241.088 38.1923 241.848 37.7056 242.5 37.1035V32.5753C241.963 32.9027 241.381 33.1592 240.771 33.3376C240.056 33.5291 239.315 33.6199 238.572 33.6068C238.158 33.6352 237.743 33.5708 237.36 33.419C236.977 33.2671 236.638 33.0319 236.369 32.7327C235.842 32.0354 235.583 31.1887 235.635 30.333V20.5519H242.26V15.7981H235.635V9.20337L232.561 9.20425Z" fill="#D64575"/>
<path d="M210.769 16.4267C209.637 17.1322 208.638 18.0118 207.812 19.0291V6.1543H201.802V38.4507H207.812V24.0967C208.471 23.2024 209.278 22.4145 210.202 21.7635C211.061 21.1299 212.118 20.7831 213.208 20.7775C213.793 20.7465 214.378 20.8301 214.927 21.0229C215.477 21.2158 215.978 21.5137 216.4 21.8982C217.247 22.8453 217.664 24.0707 217.56 25.3075L217.609 38.4498H223.619V24.5461C223.619 21.4357 222.799 19.1029 221.159 17.5474C220.363 16.7847 219.411 16.1841 218.361 15.7828C217.311 15.3816 216.186 15.188 215.054 15.2142C213.528 15.1904 212.033 15.6137 210.772 16.4258" fill="#D64575"/>
<path d="M189.562 21.5607C190.602 22.0869 191.539 22.7772 192.334 23.6019V26.832C192.372 28.0577 192.07 29.2715 191.458 30.3523C190.922 31.2768 190.137 32.0507 189.183 32.5954C188.276 33.1133 187.236 33.3854 186.177 33.3822C185.361 33.4119 184.549 33.268 183.799 32.9612C183.05 32.6544 182.383 32.1925 181.847 31.6094C180.752 30.4094 180.171 28.8659 180.216 27.2813C180.206 26.1861 180.466 25.1037 180.973 24.1194C181.455 23.1734 182.178 22.356 183.078 21.7408C184.027 21.115 185.163 20.7933 186.319 20.8229C187.448 20.8137 188.561 21.0677 189.561 21.5625M179.482 16.6732C177.761 17.678 176.369 19.1145 175.46 20.8229C174.415 22.829 173.903 25.0459 173.969 27.2813C173.9 29.5005 174.403 31.7023 175.436 33.696C176.314 35.3595 177.666 36.7579 179.339 37.7338C180.944 38.6546 182.787 39.1358 184.664 39.1237C186.318 39.1557 187.941 38.6925 189.3 37.8002C190.56 36.9877 191.598 35.9041 192.329 34.6384V38.5853C192.347 39.6936 192.009 40.7811 191.359 41.7035C190.691 42.6322 189.767 43.3692 188.686 43.8338C187.484 44.3555 186.174 44.6159 184.852 44.5961C183.641 44.6166 182.434 44.4501 181.28 44.1031C180.318 43.8017 179.397 43.3951 178.535 42.8914C177.73 42.4136 176.965 41.9651 176.24 41.5461V46.9293C177.435 47.7219 178.703 48.4126 180.028 48.9932C181.674 49.6438 183.45 49.9497 185.233 49.8901C187.497 49.9127 189.735 49.4287 191.764 48.4774C193.723 47.5583 195.377 46.1461 196.543 44.3959C197.795 42.4299 198.42 40.1634 198.342 37.8693V15.7964H192.332V18.3534C191.415 17.3728 190.285 16.5922 189.018 16.0657C187.79 15.5175 186.451 15.2265 185.092 15.2124C183.115 15.1931 181.172 15.6983 179.484 16.6706" fill="#D64575"/>
<path d="M159.492 15.7501C158.754 15.4732 157.966 15.336 157.172 15.3462C155.771 15.3398 154.416 15.8186 153.363 16.6925C152.193 17.6446 151.209 18.7827 150.453 20.0554V15.7956H144.442V38.448H150.453V25.7952C151.077 24.6277 151.892 23.5602 152.866 22.6316C153.321 22.2092 153.861 21.8781 154.454 21.6585C155.048 21.4388 155.682 21.3351 156.318 21.3536C157.433 21.3559 158.527 21.6344 159.492 22.1613V15.7501Z" fill="#D64575"/>
<path d="M93.9447 9.20425C93.3396 11.2358 92.302 13.129 90.8956 14.7675C89.7903 16.0554 88.346 17.0452 86.708 17.6374V20.5528H91.0138V31.813C90.9553 32.7881 91.103 33.7645 91.4482 34.6849C91.7935 35.6053 92.3293 36.4514 93.0244 37.1735C93.7054 37.8239 94.5219 38.3333 95.422 38.6692C96.3222 39.0051 97.2864 39.1602 98.2533 39.1246C99.4123 39.1601 100.566 38.961 101.637 38.5407C102.472 38.194 103.234 37.7077 103.886 37.1053V32.5753C103.349 32.9033 102.768 33.1598 102.157 33.3376C101.442 33.5293 100.701 33.6201 99.9581 33.6068C99.5444 33.6352 99.1295 33.5708 98.747 33.4189C98.3646 33.267 98.0254 33.0319 97.7571 32.7327C97.2299 32.0356 96.9706 31.1888 97.0226 30.333V20.5519H103.648V15.7981H97.0226V9.20337L93.9447 9.20425Z" fill="#D64575"/>
<path d="M161.764 15.7979V20.6416H165.598V38.4495H171.604V15.7979H161.764Z" fill="#D64575"/>
<path d="M167.665 12.4689C168.184 12.4686 168.696 12.3717 169.175 12.1838C169.653 11.9958 170.088 11.7206 170.454 11.3737C170.82 11.0268 171.11 10.6151 171.308 10.1621C171.505 9.70911 171.607 9.2237 171.606 8.7336C171.607 8.24364 171.505 7.75841 171.307 7.30562C171.109 6.85282 170.819 6.44131 170.453 6.09461C170.087 5.74792 169.653 5.47282 169.174 5.285C168.696 5.09718 168.183 5.00034 167.665 5C167.148 5.00034 166.635 5.09718 166.157 5.285C165.678 5.47282 165.244 5.74792 164.878 6.09461C164.512 6.44131 164.222 6.85282 164.024 7.30562C163.826 7.75841 163.724 8.24364 163.725 8.7336C163.724 9.2237 163.825 9.70911 164.023 10.1621C164.221 10.6151 164.511 11.0268 164.877 11.3737C165.243 11.7206 165.678 11.9958 166.156 12.1838C166.635 12.3717 167.147 12.4686 167.665 12.4689Z" fill="#D64575"/>
<path d="M40.7979 56.0186V60.8623H44.6315V78.6702H50.6375V56.0186H40.7979Z" fill="#D64575"/>
<path d="M46.6991 52.6897C47.2171 52.6893 47.7299 52.5923 48.2083 52.4043C48.6867 52.2164 49.1213 51.9411 49.4872 51.5942C49.8532 51.2474 50.1433 50.8357 50.3411 50.3828C50.5389 49.9298 50.6404 49.4445 50.6399 48.9544C50.6405 48.4642 50.5391 47.9787 50.3414 47.5256C50.1437 47.0725 49.8536 46.6607 49.4876 46.3137C49.1217 45.9666 48.6871 45.6912 48.2086 45.5031C47.7302 45.315 47.2172 45.2179 46.6991 45.2173C46.1809 45.2177 45.6679 45.3148 45.1893 45.5028C44.7107 45.6909 44.276 45.9663 43.91 46.3134C43.5439 46.6604 43.2537 47.0722 43.056 47.5254C42.8582 47.9785 42.7567 48.4641 42.7573 48.9544C42.7568 49.4445 42.8584 49.93 43.0563 50.383C43.2541 50.836 43.5443 51.2477 43.9104 51.5945C44.2764 51.9414 44.7111 52.2167 45.1896 52.4046C45.6681 52.5925 46.181 52.6894 46.6991 52.6897Z" fill="#D64575"/>
</svg>
